<svg width="189" height="48" viewBox="0 0 189 48" fill="none" xmlns="http://www.w3.org/2000/svg">
<path d="M36.2648 47.0073H45.471L27.3075 1.21256H18.2879L0 47.0073H9.14396L13.0006 36.7892H32.4082L36.2648 47.0073ZM15.862 29.2502L22.7666 10.9946L29.609 29.2502H15.862Z" fill="white"/>
<path d="M90.8132 22.085V29.5617H103.814C102.694 36.0415 97.9045 40.3406 90.751 40.3406C81.9803 40.3406 76.0087 34.11 76.0087 23.8919C76.0087 14.1099 82.2913 7.63005 91.1865 7.63005C97.8423 7.63005 103.067 11.1815 105.058 16.5398L111.963 11.9292C108.168 4.20323 99.9572 0.0287469 91.3109 0.0287469C77.9992 0.0287469 67.4868 9.43692 67.4868 24.0165C67.4868 38.2845 76.9418 47.9419 89.6936 47.9419C97.0336 47.9419 101.326 44.6397 103.876 41.2129V47.0073H112.149V22.085H90.8132Z" fill="white"/>
<path d="M134.236 14.8158H135.368L131.611 5.65682H130.504L126.722 14.8158H127.854L128.911 12.1865H133.191L134.236 14.8158ZM129.284 11.2768L131.063 6.87802L132.818 11.2768H129.284Z" fill="white"/>
<path d="M139.584 8.22382C138.875 8.22382 137.942 8.49797 137.444 9.45748V8.33597H136.424V14.8158H137.444V11.6756C137.444 9.88115 138.303 9.2581 139.472 9.2581C139.646 9.2581 139.82 9.28302 139.982 9.3204V8.2612C139.833 8.23628 139.733 8.22382 139.584 8.22382Z" fill="white"/>
<path d="M144.826 9.27056V8.33597H142.96V5.94343L141.94 6.71602V8.33597H140.808V9.27056H141.94V13.1211C141.94 14.4793 142.637 14.9778 143.906 14.9778C144.092 14.9778 144.503 14.9404 144.689 14.8656V13.956C144.515 13.9933 144.229 14.0307 144.067 14.0307C143.358 14.0307 142.96 13.9186 142.96 12.9964V9.27056H144.826Z" fill="white"/>
<path d="M127.792 20.1948V29.3538H128.824V20.1948H127.792Z" fill="white"/>
<path d="M134.142 22.6871C133.147 22.6871 132.437 23.0609 131.977 23.7961V22.874H130.957V29.3538H131.977V25.8397C131.977 24.4067 132.724 23.6092 133.955 23.6092C135.038 23.6092 135.61 24.2447 135.61 25.4534V29.3538H136.63V25.3039C136.63 23.6715 135.722 22.6871 134.142 22.6871Z" fill="white"/>
<path d="M141.626 22.6871C140.63 22.6871 139.921 23.0609 139.461 23.7961V22.874H138.441V29.3538H139.461V25.8397C139.461 24.4067 140.207 23.6092 141.439 23.6092C142.521 23.6092 143.094 24.2447 143.094 25.4534V29.3538H144.114V25.3039C144.114 23.6715 143.206 22.6871 141.626 22.6871Z" fill="white"/>
<path d="M148.935 22.6746C147.007 22.6746 145.502 24.0703 145.502 26.1139C145.502 28.1451 147.007 29.5407 148.935 29.5407C150.864 29.5407 152.382 28.1451 152.382 26.1139C152.382 24.0703 150.864 22.6746 148.935 22.6746ZM148.935 23.6217C150.341 23.6217 151.337 24.6061 151.337 26.1139C151.337 27.6092 150.341 28.5937 148.935 28.5937C147.567 28.5937 146.547 27.6092 146.547 26.1139C146.547 24.6061 147.542 23.6217 148.935 23.6217Z" fill="white"/>
<path d="M158.417 22.874L156.227 28.2323L154.038 22.874H152.906L155.668 29.3538H156.775L159.524 22.874H158.417Z" fill="white"/>
<path d="M166.06 29.3538L165.861 28.17V24.8179C165.861 23.4347 164.878 22.6746 163.261 22.6746C161.805 22.6746 160.636 23.5095 160.536 24.7432L161.469 25.117C161.469 24.0453 162.266 23.522 163.261 23.522C164.094 23.522 164.853 23.8086 164.853 24.5936C164.853 25.2915 164.567 25.3911 162.477 25.765C161.221 25.9893 160.375 26.6123 160.375 27.7089C160.375 28.8055 161.27 29.5407 162.539 29.5407C163.472 29.5407 164.356 29.2292 164.891 28.469L165.177 29.3538H166.06ZM162.751 28.7183C161.942 28.7183 161.469 28.2572 161.469 27.6591C161.469 26.9488 162.029 26.6746 162.763 26.5376C164.231 26.2385 164.642 26.1887 164.853 25.9768V26.7369C164.853 27.8584 164.082 28.7183 162.751 28.7183Z" fill="white"/>
<path d="M171.129 23.8086V22.874H169.263V20.4814L168.243 21.254V22.874H167.111V23.8086H168.243V27.6591C168.243 29.0173 168.94 29.5158 170.209 29.5158C170.395 29.5158 170.806 29.4784 170.992 29.4036V28.494C170.818 28.5314 170.532 28.5687 170.37 28.5687C169.661 28.5687 169.263 28.4566 169.263 27.5345V23.8086H171.129Z" fill="white"/>
<path d="M172.456 20.1948V21.441H173.712V20.1948H172.456ZM172.568 22.874V29.3538H173.588V22.874H172.568Z" fill="white"/>
<path d="M180.273 22.874L178.084 28.2323L175.894 22.874H174.762L177.524 29.3538H178.631L181.381 22.874H180.273Z" fill="white"/>
<path d="M188.208 26.0017C188.208 24.0204 187.038 22.6746 185.085 22.6746C183.256 22.6746 181.913 24.1575 181.913 26.1139C181.913 28.1451 183.232 29.5407 185.185 29.5407C186.342 29.5407 187.536 29.0672 188.108 27.9706L187.325 27.3102C186.939 28.2074 186.23 28.631 185.197 28.631C184.015 28.631 183.095 27.8958 182.97 26.4503H188.183C188.195 26.3008 188.208 26.1388 188.208 26.0017ZM185.085 23.5843C186.292 23.5843 187.101 24.3569 187.101 25.6279H182.983C183.157 24.2946 184.04 23.5843 185.085 23.5843Z" fill="white"/>
<path d="M131.822 39.1815V40.1036H134.858C134.796 41.8606 133.539 43.1317 131.798 43.1317C129.782 43.1317 128.264 41.7859 128.264 39.2936C128.264 36.8139 129.981 35.4805 131.86 35.4805C133.241 35.4805 134.472 36.1285 135.032 37.3248L135.866 36.7017C135.082 35.2811 133.477 34.5335 131.872 34.5335C129.396 34.5335 127.207 36.3154 127.207 39.3061C127.207 42.2719 129.197 44.0787 131.574 44.0787C133.328 44.0787 134.311 43.1815 134.858 42.2843V43.8918H135.903V39.1815H131.822Z" fill="white"/>
<path d="M143.171 43.8918L142.972 42.708V39.3559C142.972 37.9728 141.989 37.2126 140.372 37.2126C138.916 37.2126 137.747 38.0475 137.647 39.2812L138.58 39.655C138.58 38.5834 139.377 38.06 140.372 38.06C141.205 38.06 141.964 38.3466 141.964 39.1316C141.964 39.8295 141.678 39.9292 139.588 40.303C138.332 40.5273 137.486 41.1503 137.486 42.2469C137.486 43.3435 138.381 44.0787 139.65 44.0787C140.583 44.0787 141.467 43.7672 142.002 43.0071L142.288 43.8918H143.171ZM139.862 43.2563C139.053 43.2563 138.58 42.7952 138.58 42.1971C138.58 41.4868 139.14 41.2127 139.874 41.0756C141.342 40.7765 141.753 40.7267 141.964 40.5148V41.275C141.964 42.3965 141.193 43.2563 139.862 43.2563Z" fill="white"/>
<path d="M144.894 34.7329V43.8918H145.914V34.7329H144.894Z" fill="white"/>
<path d="M147.931 34.7329V43.8918H148.951V34.7329H147.931Z" fill="white"/>
<path d="M156.778 40.5398C156.778 38.5584 155.609 37.2126 153.655 37.2126C151.827 37.2126 150.483 38.6955 150.483 40.6519C150.483 42.6831 151.802 44.0787 153.755 44.0787C154.912 44.0787 156.106 43.6052 156.678 42.5086L155.895 41.8482C155.509 42.7454 154.8 43.1691 153.767 43.1691C152.585 43.1691 151.665 42.4338 151.54 40.9884H156.753C156.766 40.8388 156.778 40.6768 156.778 40.5398ZM153.655 38.1223C154.862 38.1223 155.671 38.8949 155.671 40.1659H151.553C151.727 38.8326 152.61 38.1223 153.655 38.1223Z" fill="white"/>
<path d="M161.501 37.2999C160.792 37.2999 159.859 37.574 159.361 38.5335V37.412H158.341V43.8918H159.361V40.7516C159.361 38.9572 160.22 38.3341 161.389 38.3341C161.563 38.3341 161.738 38.3591 161.899 38.3964V37.3372C161.75 37.3123 161.65 37.2999 161.501 37.2999Z" fill="white"/>
<path d="M167.99 37.412L165.863 42.5958L163.636 37.412H162.491L165.303 43.7921L164.134 46.571H165.228L169.11 37.412H167.99Z" fill="white"/>
<path d="M50.8882 16.6261H59.5L58.8737 20.6972H50.3818L50.8882 16.6261Z" fill="white"/>
<path fill-rule="evenodd" clip-rule="evenodd" d="M56.4839 0C55.1323 0 53.9856 0.491467 53.0436 1.4744C52.1016 2.41638 51.6306 3.56314 51.6306 4.91468C51.6306 6.26621 52.1016 7.41297 53.0436 8.35495C53.9856 9.29692 55.1323 9.76791 56.4839 9.76791C57.8354 9.76791 58.9821 9.29692 59.9241 8.35495C60.9071 7.41297 61.3985 6.26621 61.3985 4.91468C61.3985 3.56314 60.9071 2.41638 59.9241 1.4744C58.9821 0.491467 57.8354 0 56.4839 0ZM52.8593 17.8157C51.7125 18.1843 50.9344 18.7372 50.5248 19.4744L48.3132 38.4573C48.2723 38.9488 48.2518 39.4198 48.2518 39.8703C48.2518 42 48.9071 43.7406 50.2176 45.0921C51.5692 46.4437 53.617 47.1194 56.361 47.1194C59.105 47.1194 61.46 46.116 63.4258 44.1092C65.3574 42.1374 66.7355 39.5526 67.5599 36.3551H63.92C63.5247 37.2228 63.0733 38.0464 62.5658 38.8259C61.46 40.5461 60.2313 41.4061 58.8797 41.4061C57.5692 41.4061 56.832 40.8737 56.6682 39.8088C56.5862 39.3993 56.5453 38.9283 56.5453 38.3959C56.5453 37.8225 56.6477 37.1263 56.8525 36.3071C56.8525 36.1843 57.6511 29.959 59.2484 17.6314C58.3883 17.3447 57.3849 17.2014 56.2381 17.2014C55.1323 17.2014 54.006 17.4061 52.8593 17.8157ZM65.1347 32.9103H65.2148C65.1909 32.8939 65.1679 32.8794 65.146 32.8669L65.1347 32.9103Z" fill="white"/>
</svg>
