<svg width="176" height="33" viewBox="0 0 176 33" fill="none" xmlns="http://www.w3.org/2000/svg">
<path d="M25 16.5L15.25 22.1292L15.25 10.8708L25 16.5Z" fill="#181F25"/>
<path d="M39 12.6367L39 25.0004" stroke="#181F25" stroke-width="2.5"/>
<path d="M47 8L47 25" stroke="#181F25" stroke-width="2.5"/>
<path d="M87 13L87 25" stroke="#181F25" stroke-width="2.5"/>
<path d="M55 10.3184L55 25.0002" stroke="#181F25" stroke-width="2.5"/>
<path d="M95 10.3184L95 25.0002" stroke="#181F25" stroke-width="2.5"/>
<path d="M63 15.7266L63 24.9993" stroke="#181F25" stroke-width="2.5"/>
<path d="M103 15.7266L103 24.9993" stroke="#181F25" stroke-width="2.5"/>
<path d="M71 11.0898L71 24.9989" stroke="#181F25" stroke-width="2.5"/>
<path d="M79 18.0449L79 24.9995" stroke="#181F25" stroke-width="2.5"/>
<rect opacity="0.5" x="0.5" y="0.5" width="175" height="32" rx="16" stroke="#181F25"/>
<path d="M129.624 22.192C132.152 22.192 133.608 21.008 133.608 18.992C133.608 17.664 132.904 16.736 131.608 16.368C132.824 16.016 133.384 15.232 133.384 14.176C133.384 12.272 132.072 11.184 129.624 11.184C127.368 11.184 125.944 12.384 125.752 14.576H127.336C127.48 13.344 128.072 12.592 129.608 12.592C130.984 12.592 131.752 13.2 131.752 14.224V14.256C131.752 15.264 131.08 15.808 129.736 15.808H128.824V17.232H129.752C131.336 17.232 131.96 17.76 131.96 18.944V18.992C131.96 20.144 131.16 20.784 129.64 20.784C128.024 20.784 127.32 20.112 127.208 18.864H125.592C125.736 21.248 127.288 22.192 129.624 22.192ZM138.589 22.208C141.053 22.208 142.621 20.768 142.621 18.4C142.621 16.144 141.069 14.736 138.765 14.736C137.773 14.736 136.941 15.072 136.365 15.68L136.797 12.8H142.013V11.376H135.661L134.845 16.672L136.221 17.504C136.669 16.752 137.357 16.112 138.653 16.112C140.077 16.112 140.973 16.944 140.973 18.384V18.416C140.973 19.952 140.093 20.784 138.573 20.784C137.101 20.784 136.365 20.112 136.269 18.944H134.685C134.685 20.88 136.285 22.208 138.589 22.208ZM143.861 16.896H145.797V14.88H143.861V16.896ZM143.861 22H145.797V20H143.861V22ZM152.291 22H153.827V19.52H155.539V18.16H153.827V15.056L152.291 16.032V18.16H148.355L153.779 11.376H151.827L146.979 17.904V19.52H152.291V22ZM159.51 22H161.078V11.36H159.542C159.142 13.2 157.894 14.224 156.31 14.816V16.336C157.686 15.92 158.726 15.12 159.51 14.096V22Z" fill="#181F25"/>
</svg>
